<?xml version="1.0" encoding="UTF-8" ?>
<svg version="1.1" width="320" height="320" xmlns="http://www.w3.org/2000/svg" shape-rendering="crispEdges">
<rect x="0" y="0" width="320" height="10" fill="#7BC67B" />
<rect x="0" y="10" width="10" height="310" fill="#7BC67B" />
<rect x="10" y="10" width="40" height="10" fill="#6B8C42" />
<rect x="50" y="10" width="10" height="70" fill="#5A3921" />
<rect x="60" y="10" width="10" height="10" fill="#6B8C42" />
<rect x="70" y="10" width="240" height="10" fill="#5A3921" />
<rect x="310" y="10" width="10" height="310" fill="#7BC67B" />
<rect x="10" y="20" width="30" height="20" fill="#6B8C42" />
<rect x="40" y="20" width="10" height="10" fill="#5A3921" />
<rect x="60" y="20" width="210" height="10" fill="#5A3921" />
<rect x="270" y="20" width="20" height="10" fill="#6B8C42" />
<rect x="290" y="20" width="20" height="10" fill="#5A3921" />
<rect x="40" y="30" width="10" height="10" fill="#6B8C42" />
<rect x="60" y="30" width="40" height="10" fill="#5A3921" />
<rect x="100" y="30" width="40" height="10" fill="#7BC67B" />
<rect x="140" y="30" width="70" height="10" fill="#6B8C42" />
<rect x="210" y="30" width="50" height="10" fill="#5A3921" />
<rect x="260" y="30" width="20" height="10" fill="#6B8C42" />
<rect x="280" y="30" width="10" height="10" fill="#7BC67B" />
<rect x="290" y="30" width="10" height="10" fill="#6B8C42" />
<rect x="300" y="30" width="10" height="160" fill="#5A3921" />
<rect x="10" y="40" width="10" height="30" fill="#6B8C42" />
<rect x="20" y="40" width="10" height="10" fill="#5A3921" />
<rect x="30" y="40" width="10" height="10" fill="#6B8C42" />
<rect x="40" y="40" width="10" height="250" fill="#5A3921" />
<rect x="60" y="40" width="20" height="10" fill="#5A3921" />
<rect x="80" y="40" width="10" height="10" fill="#7BC67B" />
<rect x="90" y="40" width="10" height="10" fill="#6B8C42" />
<rect x="100" y="40" width="10" height="10" fill="#7BC67B" />
<rect x="110" y="40" width="50" height="70" fill="#6B8C42" />
<rect x="160" y="40" width="40" height="10" fill="#5A3921" />
<rect x="200" y="40" width="30" height="10" fill="#6B8C42" />
<rect x="230" y="40" width="20" height="10" fill="#5A3921" />
<rect x="250" y="40" width="20" height="20" fill="#6B8C42" />
<rect x="270" y="40" width="20" height="30" fill="#5A3921" />
<rect x="290" y="40" width="10" height="10" fill="#7BC67B" />
<rect x="20" y="50" width="10" height="10" fill="#6B8C42" />
<rect x="30" y="50" width="10" height="240" fill="#5A3921" />
<rect x="60" y="50" width="10" height="10" fill="#5A3921" />
<rect x="70" y="50" width="10" height="10" fill="#7BC67B" />
<rect x="80" y="50" width="10" height="10" fill="#6B8C42" />
<rect x="90" y="50" width="10" height="10" fill="#7BC67B" />
<rect x="100" y="50" width="10" height="60" fill="#6B8C42" />
<rect x="160" y="50" width="10" height="60" fill="#6B8C42" />
<rect x="170" y="50" width="50" height="10" fill="#5A3921" />
<rect x="220" y="50" width="20" height="10" fill="#6B8C42" />
<rect x="240" y="50" width="10" height="10" fill="#5A3921" />
<rect x="290" y="50" width="10" height="30" fill="#5A3921" />
<rect x="20" y="60" width="10" height="10" fill="#5A3921" />
<rect x="60" y="60" width="10" height="20" fill="#7BC67B" />
<rect x="70" y="60" width="10" height="20" fill="#6B8C42" />
<rect x="80" y="60" width="10" height="10" fill="#7BC67B" />
<rect x="90" y="60" width="10" height="50" fill="#6B8C42" />
<rect x="170" y="60" width="30" height="50" fill="#6B8C42" />
<rect x="200" y="60" width="30" height="10" fill="#5A3921" />
<rect x="230" y="60" width="20" height="20" fill="#6B8C42" />
<rect x="250" y="60" width="10" height="10" fill="#5A3921" />
<rect x="260" y="60" width="10" height="10" fill="#6B8C42" />
<rect x="10" y="70" width="10" height="230" fill="#5A3921" />
<rect x="20" y="70" width="10" height="10" fill="#6B8C42" />
<rect x="80" y="70" width="10" height="40" fill="#6B8C42" />
<rect x="200" y="70" width="20" height="40" fill="#6B8C42" />
<rect x="220" y="70" width="10" height="10" fill="#5A3921" />
<rect x="250" y="70" width="10" height="60" fill="#6B8C42" />
<rect x="260" y="70" width="10" height="160" fill="#5A3921" />
<rect x="270" y="70" width="10" height="10" fill="#7BC67B" />
<rect x="280" y="70" width="10" height="20" fill="#6B8C42" />
<rect x="20" y="80" width="10" height="210" fill="#5A3921" />
<rect x="50" y="80" width="10" height="20" fill="#7BC67B" />
<rect x="60" y="80" width="10" height="40" fill="#6B8C42" />
<rect x="70" y="80" width="10" height="10" fill="#7BC67B" />
<rect x="220" y="80" width="10" height="30" fill="#6B8C42" />
<rect x="230" y="80" width="10" height="10" fill="#5A3921" />
<rect x="240" y="80" width="10" height="40" fill="#6B8C42" />
<rect x="270" y="80" width="10" height="140" fill="#5A3921" />
<rect x="290" y="80" width="10" height="20" fill="#6B8C42" />
<rect x="70" y="90" width="10" height="20" fill="#6B8C42" />
<rect x="230" y="90" width="10" height="20" fill="#6B8C42" />
<rect x="280" y="90" width="10" height="80" fill="#5A3921" />
<rect x="50" y="100" width="10" height="30" fill="#6B8C42" />
<rect x="290" y="100" width="10" height="80" fill="#5A3921" />
<rect x="70" y="110" width="170" height="10" fill="#5A3921" />
<rect x="60" y="120" width="20" height="10" fill="#5A3921" />
<rect x="80" y="120" width="10" height="10" fill="#FFFFB5" />
<rect x="90" y="120" width="30" height="20" fill="#5A3921" />
<rect x="120" y="120" width="10" height="10" fill="#FFFFB5" />
<rect x="130" y="120" width="10" height="10" fill="#5A3921" />
<rect x="140" y="120" width="10" height="30" fill="#FFFFB5" />
<rect x="150" y="120" width="10" height="20" fill="#7BC67B" />
<rect x="160" y="120" width="10" height="30" fill="#FFFFB5" />
<rect x="170" y="120" width="10" height="10" fill="#5A3921" />
<rect x="180" y="120" width="10" height="10" fill="#FFFFB5" />
<rect x="190" y="120" width="30" height="20" fill="#5A3921" />
<rect x="220" y="120" width="10" height="10" fill="#FFFFB5" />
<rect x="230" y="120" width="20" height="10" fill="#5A3921" />
<rect x="50" y="130" width="10" height="10" fill="#5A3921" />
<rect x="60" y="130" width="20" height="60" fill="#FFFFB5" />
<rect x="80" y="130" width="10" height="10" fill="#5A3921" />
<rect x="120" y="130" width="10" height="10" fill="#5A3921" />
<rect x="130" y="130" width="10" height="40" fill="#FFFFB5" />
<rect x="170" y="130" width="10" height="40" fill="#FFFFB5" />
<rect x="180" y="130" width="10" height="10" fill="#5A3921" />
<rect x="220" y="130" width="10" height="10" fill="#5A3921" />
<rect x="230" y="130" width="10" height="10" fill="#FFFFB5" />
<rect x="240" y="130" width="10" height="70" fill="#7BC67B" />
<rect x="250" y="130" width="10" height="10" fill="#5A3921" />
<rect x="50" y="140" width="10" height="10" fill="#FFFFB5" />
<rect x="80" y="140" width="50" height="70" fill="#FFFFB5" />
<rect x="150" y="140" width="10" height="10" fill="#6B8C42" />
<rect x="180" y="140" width="50" height="60" fill="#FFFFB5" />
<rect x="230" y="140" width="10" height="10" fill="#7BC67B" />
<rect x="250" y="140" width="10" height="30" fill="#FFFFB5" />
<rect x="50" y="150" width="10" height="30" fill="#7BC67B" />
<rect x="140" y="150" width="10" height="20" fill="#6B8C42" />
<rect x="150" y="150" width="10" height="10" fill="#FFFFB5" />
<rect x="160" y="150" width="10" height="20" fill="#7BC67B" />
<rect x="230" y="150" width="10" height="20" fill="#FFFFB5" />
<rect x="150" y="160" width="10" height="20" fill="#7BC67B" />
<rect x="130" y="170" width="10" height="10" fill="#6B8C42" />
<rect x="140" y="170" width="10" height="30" fill="#FFFFB5" />
<rect x="160" y="170" width="10" height="30" fill="#FFFFB5" />
<rect x="170" y="170" width="10" height="10" fill="#7BC67B" />
<rect x="230" y="170" width="10" height="50" fill="#7BC67B" />
<rect x="250" y="170" width="10" height="10" fill="#6B8C42" />
<rect x="280" y="170" width="10" height="10" fill="#6B8C42" />
<rect x="50" y="180" width="10" height="110" fill="#5A3921" />
<rect x="130" y="180" width="10" height="20" fill="#FFFFB5" />
<rect x="150" y="180" width="10" height="20" fill="#FFFFB5" />
<rect x="170" y="180" width="10" height="20" fill="#FFFFB5" />
<rect x="250" y="180" width="10" height="80" fill="#5A3921" />
<rect x="280" y="180" width="10" height="10" fill="#5A3921" />
<rect x="290" y="180" width="10" height="10" fill="#6B8C42" />
<rect x="60" y="190" width="10" height="30" fill="#7BC67B" />
<rect x="70" y="190" width="10" height="40" fill="#FFFFB5" />
<rect x="280" y="190" width="10" height="10" fill="#6B8C42" />
<rect x="290" y="190" width="10" height="10" fill="#5A3921" />
<rect x="300" y="190" width="10" height="120" fill="#6B8C42" />
<rect x="130" y="200" width="50" height="10" fill="#5A3921" />
<rect x="180" y="200" width="40" height="10" fill="#FFFFB5" />
<rect x="220" y="200" width="10" height="40" fill="#7BC67B" />
<rect x="240" y="200" width="10" height="70" fill="#5A3921" />
<rect x="280" y="200" width="10" height="10" fill="#5A3921" />
<rect x="290" y="200" width="10" height="10" fill="#6B8C42" />
<rect x="80" y="210" width="30" height="30" fill="#FFFFB5" />
<rect x="110" y="210" width="20" height="10" fill="#5A3921" />
<rect x="130" y="210" width="50" height="20" fill="#FFFFB5" />
<rect x="180" y="210" width="20" height="10" fill="#5A3921" />
<rect x="200" y="210" width="10" height="20" fill="#FFFFB5" />
<rect x="210" y="210" width="10" height="40" fill="#7BC67B" />
<rect x="280" y="210" width="10" height="10" fill="#6B8C42" />
<rect x="290" y="210" width="10" height="10" fill="#5A3921" />
<rect x="60" y="220" width="10" height="60" fill="#5A3921" />
<rect x="110" y="220" width="20" height="20" fill="#FFFFB5" />
<rect x="180" y="220" width="20" height="20" fill="#FFFFB5" />
<rect x="230" y="220" width="10" height="60" fill="#5A3921" />
<rect x="270" y="220" width="10" height="10" fill="#6B8C42" />
<rect x="280" y="220" width="10" height="10" fill="#5A3921" />
<rect x="290" y="220" width="10" height="90" fill="#6B8C42" />
<rect x="70" y="230" width="10" height="20" fill="#7BC67B" />
<rect x="130" y="230" width="20" height="10" fill="#6B8C42" />
<rect x="150" y="230" width="10" height="30" fill="#7BC67B" />
<rect x="160" y="230" width="20" height="10" fill="#6B8C42" />
<rect x="200" y="230" width="10" height="10" fill="#7BC67B" />
<rect x="260" y="230" width="10" height="10" fill="#6B8C42" />
<rect x="270" y="230" width="10" height="10" fill="#5A3921" />
<rect x="280" y="230" width="10" height="10" fill="#6B8C42" />
<rect x="80" y="240" width="10" height="20" fill="#FFFFB5" />
<rect x="90" y="240" width="30" height="10" fill="#6B8C42" />
<rect x="120" y="240" width="30" height="10" fill="#7BC67B" />
<rect x="160" y="240" width="30" height="10" fill="#7BC67B" />
<rect x="190" y="240" width="20" height="10" fill="#6B8C42" />
<rect x="220" y="240" width="10" height="30" fill="#5A3921" />
<rect x="260" y="240" width="10" height="10" fill="#5A3921" />
<rect x="270" y="240" width="10" height="10" fill="#6B8C42" />
<rect x="280" y="240" width="10" height="10" fill="#5A3921" />
<rect x="70" y="250" width="10" height="20" fill="#5A3921" />
<rect x="90" y="250" width="20" height="10" fill="#7BC67B" />
<rect x="110" y="250" width="10" height="30" fill="#FFFFB5" />
<rect x="120" y="250" width="20" height="10" fill="#7BC67B" />
<rect x="140" y="250" width="10" height="40" fill="#FFFFB5" />
<rect x="160" y="250" width="10" height="10" fill="#7BC67B" />
<rect x="170" y="250" width="10" height="30" fill="#FFFFB5" />
<rect x="180" y="250" width="10" height="10" fill="#7BC67B" />
<rect x="190" y="250" width="30" height="20" fill="#FFFFB5" />
<rect x="260" y="250" width="10" height="10" fill="#6B8C42" />
<rect x="270" y="250" width="10" height="10" fill="#5A3921" />
<rect x="280" y="250" width="10" height="50" fill="#6B8C42" />
<rect x="80" y="260" width="10" height="10" fill="#7BC67B" />
<rect x="90" y="260" width="20" height="10" fill="#FFFFB5" />
<rect x="120" y="260" width="20" height="20" fill="#FFFFB5" />
<rect x="150" y="260" width="20" height="30" fill="#FFFFB5" />
<rect x="180" y="260" width="10" height="20" fill="#FFFFB5" />
<rect x="250" y="260" width="10" height="10" fill="#6B8C42" />
<rect x="260" y="260" width="10" height="10" fill="#5A3921" />
<rect x="270" y="260" width="10" height="10" fill="#6B8C42" />
<rect x="70" y="270" width="20" height="10" fill="#6B8C42" />
<rect x="90" y="270" width="10" height="10" fill="#7BC67B" />
<rect x="100" y="270" width="10" height="10" fill="#FFFFB5" />
<rect x="190" y="270" width="20" height="10" fill="#FFFFB5" />
<rect x="210" y="270" width="10" height="10" fill="#7BC67B" />
<rect x="220" y="270" width="10" height="10" fill="#6B8C42" />
<rect x="240" y="270" width="10" height="10" fill="#6B8C42" />
<rect x="250" y="270" width="10" height="10" fill="#5A3921" />
<rect x="260" y="270" width="10" height="10" fill="#6B8C42" />
<rect x="270" y="270" width="10" height="10" fill="#5A3921" />
<rect x="60" y="280" width="10" height="10" fill="#6B8C42" />
<rect x="70" y="280" width="50" height="30" fill="#5A3921" />
<rect x="120" y="280" width="20" height="20" fill="#7BC67B" />
<rect x="170" y="280" width="20" height="10" fill="#7BC67B" />
<rect x="190" y="280" width="40" height="30" fill="#5A3921" />
<rect x="230" y="280" width="10" height="10" fill="#6B8C42" />
<rect x="240" y="280" width="10" height="10" fill="#5A3921" />
<rect x="250" y="280" width="10" height="20" fill="#6B8C42" />
<rect x="260" y="280" width="10" height="10" fill="#5A3921" />
<rect x="270" y="280" width="10" height="20" fill="#6B8C42" />
<rect x="20" y="290" width="40" height="10" fill="#6B8C42" />
<rect x="60" y="290" width="10" height="20" fill="#5A3921" />
<rect x="140" y="290" width="10" height="10" fill="#6B8C42" />
<rect x="150" y="290" width="10" height="10" fill="#FFFFB5" />
<rect x="160" y="290" width="20" height="30" fill="#7BC67B" />
<rect x="180" y="290" width="10" height="20" fill="#5A3921" />
<rect x="230" y="290" width="10" height="20" fill="#5A3921" />
<rect x="240" y="290" width="10" height="10" fill="#6B8C42" />
<rect x="260" y="290" width="10" height="10" fill="#6B8C42" />
<rect x="10" y="300" width="10" height="10" fill="#6B8C42" />
<rect x="20" y="300" width="40" height="10" fill="#5A3921" />
<rect x="120" y="300" width="10" height="10" fill="#5A3921" />
<rect x="130" y="300" width="20" height="20" fill="#7BC67B" />
<rect x="150" y="300" width="10" height="10" fill="#6B8C42" />
<rect x="240" y="300" width="50" height="10" fill="#5A3921" />
<rect x="10" y="310" width="120" height="10" fill="#7BC67B" />
<rect x="150" y="310" width="10" height="10" fill="#7BC67B" />
<rect x="180" y="310" width="130" height="10" fill="#7BC67B" />
</svg>